<?xml version="1.0" ?>
<!-- Uploaded to: SVG Repo, www.svgrepo.com, Generator: SVG Repo Mixer Tools -->
<svg width="800px" height="800px" viewBox="0 0 32 32" enable-background="new 0 0 32 32" version="1.1" xml:space="preserve" xmlns="http://www.w3.org/2000/svg" xmlns:xlink="http://www.w3.org/1999/xlink">
<g id="_x36_0"/>
<g id="_x35_9"/>
<g id="_x35_8"/>
<g id="_x35_7"/>
<g id="_x35_6"/>
<g id="_x35_5"/>
<g id="_x35_4"/>
<g id="_x35_3"/>
<g id="_x35_2"/>
<g id="_x35_1"/>
<g id="_x35_0"/>
<g id="_x34_9"/>
<g id="_x34_8"/>
<g id="_x34_7"/>
<g id="_x34_6"/>
<g id="_x34_5"/>
<g id="_x34_4"/>
<g id="_x34_3"/>
<g id="_x34_2"/>
<g id="_x34_1"/>
<g id="_x34_0"/>
<g id="_x33_9"/>
<g id="_x33_8"/>
<g id="_x33_7"/>
<g id="_x33_6"/>
<g id="_x33_5"/>
<g id="_x33_4"/>
<g id="_x33_3"/>
<g id="_x33_2"/>
<g id="_x33_1"/>
<g id="_x33_0"/>
<g id="_x32_9"/>
<g id="_x32_8"/>
<g id="_x32_7"/>
<g id="_x32_6"/>
<g id="_x32_5"/>
<g id="_x32_4_1_"/>
<g id="_x32_3"/>
<g id="_x32_2"/>
<g id="_x32_1"/>
<g id="_x32_0"/>
<g id="_x31_9">
<g>
<polygon fill="#BB6464" points="12,21 12,23 14,24 19,24 21,23 22,21 25,24 25,25 26,25 26,24 27,21 25,19 10,19   "/>
<polygon fill="#4848AA" points="29.5,15 3,15 3,16 2,16 2,18 4,21 5.4076538,19 5.9782715,17.8587036 7,18 7,19 10,19 25,19     26,17 27,15 28,18 30,19 30,15   "/>
<polygon fill="#F3F3F3" points="29,13 28,11 29,9 28,8 26,9 24,11 20,13 19,11 17,11 14,13 10,12 11,10 9,9 5,12 3,13 3,15 30,15       "/>
</g>
<path d="M30.8945313,14.5527344L29.1181641,11l0.7763672-1.5527344   c0.1923828-0.3852539,0.1171875-0.8500977-0.1875-1.1542969l-1-1c-0.3056641-0.3041992-0.7695313-0.3774414-1.1542969-0.1875l-2,1   c-0.0957031,0.0483398-0.1835938,0.1113281-0.2597656,0.1875l-1.8857422,1.8852539l-2.9599609,1.4799805l-0.5527344-1.1054688   C19.7246094,10.2138672,19.3789063,10,19,10h-2c-0.1972656,0-0.390625,0.0585938-0.5546875,0.1679688l-2.6318359,1.7543945   l-2.3613281-0.590332l0.4423828-0.8847656c0.2470703-0.4941406,0.046875-1.0947266-0.4472656-1.3417969l-2-1   c-0.3388672-0.168457-0.7441406-0.1323242-1.046875,0.0947266l-3.9287109,2.9458008l-1.9189453,0.9594727   C2.2138672,12.2749023,2,12.6210938,2,13v2c-0.5527344,0-1,0.4477539-1,1v2c0,0.1972656,0.0585938,0.390625,0.1679688,0.5546875   l2,3c0.1738281,0.2602539,0.4589844,0.4248047,0.7714844,0.4433594c0.3134766,0.0205078,0.6152344-0.109375,0.8193359-0.347168   l0.9785156-1.1411133c0.0537109-0.0620117,0.0986328-0.1303711,0.1357422-0.2036133l0.3427734-0.6855469   c0.0234375,0.0302734,0.0498047,0.059082,0.0771484,0.0864258l1,1c0.3056641,0.3051758,0.7695313,0.3793945,1.1542969,0.1875   l1.3554688-0.6777344L11,21.4140625V23c0,0.3789063,0.2138672,0.7250977,0.5527344,0.8945313l2,1   C13.6914063,24.9638672,13.8447266,25,14,25h5c0.1552734,0,0.3085938-0.0361328,0.4472656-0.1054688l2-1   c0.1933594-0.0966797,0.3505859-0.2539063,0.4472656-0.4472656l0.3798828-0.7592773L24,24.4140625V25c0,0.5522461,0.4472656,1,1,1   h1c0.5527344,0,1-0.4477539,1-1v-0.8378906l0.9482422-2.8457031c0.1201172-0.359375,0.0263672-0.7558594-0.2412109-1.0234375   l-1.4902344-1.4902344l0.5976563-1.1962891l0.2373047,0.7099609c0.0830078,0.2514648,0.2636719,0.4594727,0.5009766,0.578125l2,1   c0.3105469,0.1538086,0.6777344,0.1386719,0.9726563-0.0439453C30.8203125,19.668457,31,19.3466797,31,19v-4   C31,14.8447266,30.9638672,14.6914063,30.8945313,14.5527344z M29,17.3818359l-0.1826172-0.0908203l-0.8691406-2.6074219   c-0.1279297-0.3833008-0.4736328-0.6523438-0.8769531-0.6811523c-0.4160156-0.0209961-0.7851563,0.1889648-0.9658203,0.550293l-2,4   c-0.1923828,0.3852539-0.1171875,0.8500977,0.1875,1.1542969l1.5625,1.5629883L25.3125,22.8989258l-2.6054688-2.605957   c-0.2265625-0.2265625-0.5458984-0.3300781-0.8671875-0.2802734c-0.3173828,0.0517578-0.5908203,0.2524414-0.734375,0.5400391   l-0.8505859,1.7021484L18.7636719,23h-4.5273438L13,22.3818359V21c0-0.2651367-0.1054688-0.5195313-0.2929688-0.7070313l-2-2   c-0.3056641-0.3046875-0.7695313-0.378418-1.1542969-0.1875l-1.3554688,0.6777344L8,18.5859375V18   c0-0.4995117-0.3681641-0.9223633-0.8632813-0.9907227l-1.0214844-0.1411133   c-0.4296875-0.0566406-0.8398438,0.1611328-1.03125,0.543457l-0.9443359,1.8896484L4.0996094,19.347168L3,17.6972656V17   c0.5527344,0,1-0.4477539,1-1v-2.3818359l1.4472656-0.7236328c0.0537109-0.0268555,0.1044922-0.0585938,0.1523438-0.0947266   l3.5058594-2.6289063l0.5527344,0.2763672l-0.5527344,1.1054688c-0.1357422,0.2714844-0.140625,0.5893555-0.0136719,0.8652344   c0.1259766,0.2753906,0.3710938,0.4785156,0.6660156,0.5522461l4,1c0.2724609,0.0668945,0.5615234,0.0175781,0.796875-0.1381836   L17.3027344,12h1.0791016l0.7236328,1.4472656c0.2480469,0.4946289,0.8476563,0.6943359,1.3417969,0.4472656l4-2   c0.0957031-0.0483398,0.1835938-0.1113281,0.2597656-0.1875l1.8857422-1.8852539l1.1708984-0.5859375l-0.6582031,1.3168945   c-0.140625,0.2817383-0.140625,0.612793,0,0.8945313L29,15.2358398V17.3818359z" fill="#4D4D4D"/>
</g>
<g id="_x31_8"/>
<g id="_x31_7"/>
<g id="_x31_6"/>
<g id="_x31_5"/>
<g id="_x31_4"/>
<g id="_x31_3"/>
<g id="_x31_2"/>
<g id="_x31_1"/>
<g id="_x31_0"/>
<g id="_x39_"/>
<g id="_x38_"/>
<g id="_x37_"/>
<g id="_x36_"/>
<g id="_x35_"/>
<g id="_x34_"/>
<g id="_x33_"/>
<g id="_x32_"/>
<g id="_x31_"/>
<g id="Guides"/>
</svg>